<svg width="232" height="66" viewBox="0 0 232 66" fill="none" xmlns="http://www.w3.org/2000/svg">
<path d="M18 51.46C7.78 51.46 0.5 43.9 0.5 33.26C0.5 22.41 7.78 14.78 18 14.78C26.33 14.78 32.84 20.03 33.68 27.38L24.44 30.04C23.6 26.26 21.08 24.02 17.86 24.02C13.66 24.02 10.72 27.87 10.72 33.12C10.72 38.37 13.8 42.08 18 42.08C21.43 42.08 24.3 39.56 24.72 35.64L34.24 38.58C32.84 46.7 26.26 51.46 18 51.46ZM54.1359 51.46C43.7059 51.46 36.3559 43.83 36.3559 33.12C36.3559 22.41 43.7059 14.78 54.1359 14.78C64.5659 14.78 71.9159 22.41 71.9159 33.12C71.9159 43.83 64.5659 51.46 54.1359 51.46ZM54.1359 42.08C58.6159 42.08 61.8359 38.37 61.8359 33.05C61.8359 27.73 58.6159 24.02 54.1359 24.02C49.6559 24.02 46.4359 27.73 46.4359 33.05C46.4359 38.37 49.6559 42.08 54.1359 42.08ZM75.6658 50.62V15.62H83.2258L85.0458 20.52C86.7958 17.09 90.5758 14.78 94.7058 14.78C98.976 14.78 102.826 17.09 104.576 20.59C106.466 17.09 110.526 14.78 114.866 14.78C121.726 14.78 126.626 20.38 126.626 28.22V50.62H116.826V30.18C116.826 26.75 114.656 24.3 111.646 24.3C108.496 24.3 106.186 27.1 106.186 31.02V50.62H96.5258V30.46C96.5258 26.89 94.2858 24.3 91.2058 24.3C87.8458 24.3 85.4658 27.24 85.4658 31.3V50.62H75.6658ZM152.128 51.46C147.788 51.46 144.078 49.57 141.488 46.28V64.62H131.688V15.62H139.248L141.068 20.38C143.658 16.88 147.508 14.78 151.988 14.78C160.668 14.78 166.828 22.34 166.828 32.98C166.828 43.76 160.668 51.46 152.128 51.46ZM149.188 41.94C153.668 41.94 156.888 38.23 156.888 33.05C156.888 27.87 153.668 24.16 149.188 24.16C144.708 24.16 141.488 27.87 141.488 33.05C141.488 38.23 144.708 41.94 149.188 41.94ZM170.76 50.62V3.02H180.56V50.62H170.76ZM195.976 51.46C189.326 51.46 184.496 47.12 184.496 41.1C184.496 36.62 187.996 32.63 192.896 31.58L204.376 29.2C205.216 29.06 205.636 28.5 205.636 27.94C205.636 25.49 203.606 23.74 200.736 23.74C197.936 23.74 195.696 25.63 195.416 28.22L185.896 24.86C187.506 18.98 193.526 14.78 200.316 14.78C209.066 14.78 215.436 20.31 215.436 27.94V43.62L215.576 50.62H207.876L206.336 46.56C204.096 49.57 200.386 51.46 195.976 51.46ZM194.856 39.14C194.856 41.03 196.256 42.36 198.776 42.36C202.416 42.36 205.636 39.42 205.636 34.66V34.03C204.866 34.31 203.956 34.52 203.256 34.66L197.936 35.78C195.976 36.2 194.856 37.46 194.856 39.14ZM220.456 15.62H230.256V50.62H220.456V15.62ZM225.356 12.26C221.996 12.26 219.616 9.81 219.616 6.38C219.616 2.95 221.996 0.5 225.356 0.5C228.716 0.5 231.096 2.95 231.096 6.38C231.096 9.81 228.716 12.26 225.356 12.26Z" fill="black"/>
<path d="M31.4184 32.1861L21.9676 29.3212C21.1623 29.0771 21.0002 28.008 21.6971 27.5362L32.8325 19.9965C33.5584 19.505 34.5204 20.119 34.3803 20.9844L32.6956 31.3889C32.5989 31.9864 31.9977 32.3617 31.4184 32.1861Z" fill="black"/>
<path d="M18 51.46C7.78 51.46 0.5 43.9 0.5 33.26C0.5 22.41 7.78 14.78 18 14.78C26.33 14.78 32.84 20.03 33.68 27.38L24.44 30.04C23.6 26.26 21.08 24.02 17.86 24.02C13.66 24.02 10.72 27.87 10.72 33.12C10.72 38.37 13.8 42.08 18 42.08C21.43 42.08 24.3 39.56 24.72 35.64L34.24 38.58C32.84 46.7 26.26 51.46 18 51.46ZM54.1359 51.46C43.7059 51.46 36.3559 43.83 36.3559 33.12C36.3559 22.41 43.7059 14.78 54.1359 14.78C64.5659 14.78 71.9159 22.41 71.9159 33.12C71.9159 43.83 64.5659 51.46 54.1359 51.46ZM54.1359 42.08C58.6159 42.08 61.8359 38.37 61.8359 33.05C61.8359 27.73 58.6159 24.02 54.1359 24.02C49.6559 24.02 46.4359 27.73 46.4359 33.05C46.4359 38.37 49.6559 42.08 54.1359 42.08ZM75.6658 50.62V15.62H83.2258L85.0458 20.52C86.7958 17.09 90.5758 14.78 94.7058 14.78C98.976 14.78 102.826 17.09 104.576 20.59C106.466 17.09 110.526 14.78 114.866 14.78C121.726 14.78 126.626 20.38 126.626 28.22V50.62H116.826V30.18C116.826 26.75 114.656 24.3 111.646 24.3C108.496 24.3 106.186 27.1 106.186 31.02V50.62H96.5258V30.46C96.5258 26.89 94.2858 24.3 91.2058 24.3C87.8458 24.3 85.4658 27.24 85.4658 31.3V50.62H75.6658ZM152.128 51.46C147.788 51.46 144.078 49.57 141.488 46.28V64.62H131.688V15.62H139.248L141.068 20.38C143.658 16.88 147.508 14.78 151.988 14.78C160.668 14.78 166.828 22.34 166.828 32.98C166.828 43.76 160.668 51.46 152.128 51.46ZM149.188 41.94C153.668 41.94 156.888 38.23 156.888 33.05C156.888 27.87 153.668 24.16 149.188 24.16C144.708 24.16 141.488 27.87 141.488 33.05C141.488 38.23 144.708 41.94 149.188 41.94ZM170.76 50.62V3.02H180.56V50.62H170.76ZM195.976 51.46C189.326 51.46 184.496 47.12 184.496 41.1C184.496 36.62 187.996 32.63 192.896 31.58L204.376 29.2C205.216 29.06 205.636 28.5 205.636 27.94C205.636 25.49 203.606 23.74 200.736 23.74C197.936 23.74 195.696 25.63 195.416 28.22L185.896 24.86C187.506 18.98 193.526 14.78 200.316 14.78C209.066 14.78 215.436 20.31 215.436 27.94V43.62L215.576 50.62H207.876L206.336 46.56C204.096 49.57 200.386 51.46 195.976 51.46ZM194.856 39.14C194.856 41.03 196.256 42.36 198.776 42.36C202.416 42.36 205.636 39.42 205.636 34.66V34.03C204.866 34.31 203.956 34.52 203.256 34.66L197.936 35.78C195.976 36.2 194.856 37.46 194.856 39.14ZM220.456 15.62H230.256V50.62H220.456V15.62ZM225.356 12.26C221.996 12.26 219.616 9.81 219.616 6.38C219.616 2.95 221.996 0.5 225.356 0.5C228.716 0.5 231.096 2.95 231.096 6.38C231.096 9.81 228.716 12.26 225.356 12.26Z" stroke="black"/>
<path d="M31.4184 32.1861L21.9676 29.3212C21.1623 29.0771 21.0002 28.008 21.6971 27.5362L32.8325 19.9965C33.5584 19.505 34.5204 20.119 34.3803 20.9844L32.6956 31.3889C32.5989 31.9864 31.9977 32.3617 31.4184 32.1861Z" stroke="black"/>
</svg>
